# xmcd
#
# Track frame offsets:
#   150
#   18780
#   31580
#   47691
#   60301
#   74704
#   88403
#   101160
#   119263
#   132982
#   146001
#   161054
#   172945
#   186413
#   198104
#   212150
#   226774
#   241275
#
# Disc length: 3465 seconds
#
# Revision: 0
# Processed by: cddbd v1.5.1PL2 Copyright (c) Steve Scherf et al.
# Submitted via: uFREEDB ActiveX Control 1.5
#
DISCID=f90d8712
DTITLE=Alternativo sertanejo - Alternativo Sertanejo
DYEAR=1900
DGENRE=Country
TTITLE0=Bebedeira
TTITLE1=Rodopiou
TTITLE2=Sombra boa e água fresca
TTITLE3=Amor carrapicho
TTITLE4=Aconteceu comigo
TTITLE5=Credo em cruz ave maria
TTITLE6=Caí no laço
TTITLE7=É carro
TTITLE8=Flecha certeira
TTITLE9=Tá no pé, tá na bota
TTITLE10=Água de coco
TTITLE11=Mulher pimenta
TTITLE12=No embalo do arrasta pé
TTITLE13=Sapatiô, sapatiô
TTITLE14=Alô mulherada
TTITLE15=Tô de olho
TTITLE16=Vai rimar com que
TTITLE17=Agora aguenta nóis
EXTD=
EXTT0=
EXTT1=
EXTT2=
EXTT3=
EXTT4=
EXTT5=
EXTT6=
EXTT7=
EXTT8=
EXTT9=
EXTT10=
EXTT11=
EXTT12=
EXTT13=
EXTT14=
EXTT15=
EXTT16=
EXTT17=
PLAYORDER=
